<svg width="1000" height="1000" viewBox="0 0 1000 1000" xmlns="http://www.w3.org/2000/svg"><defs/><path fill="#d1a062" transform="matrix(1.1462892693733941 0 0 1.1462892693733941 26.181678355167932 -9.216223970523828)" d="M 247.39969654199 531.59707268878 L 579.29969654199 531.59707268878 C 589.29969654199 531.59707268878 597.29969654199 523.49707268878 597.29969654199 513.59707268878 L 229.29969654199 513.59707268878 C 229.29969654199 523.49707268878 237.39969654199 531.59707268878 247.39969654199 531.59707268878 Z"/><path fill="#d1a062" transform="matrix(1.1462892693733941 0 0 1.1462892693733941 26.181678355167932 -9.216223970523828)" d="M 606.69969654199 484.69707268878 L 219.89969654199 484.69707268878 C 209.89969654199 484.69707268878 201.89969654199 492.79707268878 201.89969654199 502.69707268878 L 624.79969654199 502.69707268878 C 624.79969654199 492.79707268878 616.69969654199 484.69707268878 606.69969654199 484.69707268878 Z"/><path fill="#d1a062" transform="matrix(1.1462892693733941 0 0 1.1462892693733941 26.181678355167932 -9.216223970523828)" d="M 528.09969654199 331.19707268878 C 528.09969654199 318.29707268878 517.69969654199 307.89707268878 504.79969654199 307.89707268878 L 504.79969654199 475.29707268878 L 528.09969654199 475.29707268878 L 528.09969654199 331.19707268878 Z"/><path fill="#d1a062" transform="matrix(1.1462892693733941 0 0 1.1462892693733941 26.181678355167932 -9.216223970523828)" d="M 486.79969654199 246.69707268878 C 486.79969654199 233.79707268878 476.39969654199 223.39707268878 463.49969654199 223.39707268878 L 463.49969654199 475.29707268878 L 486.79969654199 475.29707268878 L 486.79969654199 246.69707268878 Z"/><path fill="#d1a062" transform="matrix(1.1462892693733941 0 0 1.1462892693733941 26.181678355167932 -9.216223970523828)" d="M 445.49969654199 162.19707268878 C 445.49969654199 149.29707268878 435.09969654199 138.89707268878 422.19969654199 138.89707268878 L 422.19969654199 475.39707268878 L 445.49969654199 475.39707268878 L 445.49969654199 162.19707268878 Z"/><path fill="#d1a062" transform="matrix(1.1462892693733941 0 0 1.1462892693733941 26.181678355167932 -9.216223970523828)" d="M 298.49969654199 331.19707268878 C 298.49969654199 318.29707268878 308.89969654199 307.89707268878 321.79969654199 307.89707268878 L 321.79969654199 475.29707268878 L 298.49969654199 475.29707268878 L 298.49969654199 331.19707268878 Z"/><path fill="#d1a062" transform="matrix(1.1462892693733941 0 0 1.1462892693733941 26.181678355167932 -9.216223970523828)" d="M 339.79969654199 246.69707268878 C 339.79969654199 233.79707268878 350.19969654199 223.39707268878 363.09969654199 223.39707268878 L 363.09969654199 475.29707268878 L 339.79969654199 475.29707268878 L 339.79969654199 246.69707268878 Z"/><path fill="#d1a062" transform="matrix(1.1462892693733941 0 0 1.1462892693733941 26.181678355167932 -9.216223970523828)" d="M 381.09969654199 162.19707268878 C 381.09969654199 149.29707268878 391.49969654199 138.89707268878 404.39969654199 138.89707268878 L 404.39969654199 475.39707268878 L 381.09969654199 475.39707268878 L 381.09969654199 162.19707268878 Z"/><path id="text" fill="#181610" transform="matrix(1.8245710920461384 0 0 1.8245710920461384 -10.006632082940538 761.2894646012068)" d="M 181.92763138449 18.1511891109 L 160.45888138449 18.1511891109 L 160.45888138449 36.2449391109 L 185.86513138449 36.2449391109 L 185.86513138449 47.6824391109 L 146.67763138449 47.6824391109 L 146.67763138449 -20.5675608891 L 185.77138138449 -20.5675608891 L 185.77138138449 -9.0831858891 L 160.45888138449 -9.0831858891 L 160.45888138449 7.0418141109 L 181.92763138449 7.0418141109 L 181.92763138449 18.1511891109 Z M 216.99013138449 23.9636891109 L 194.06825638449 23.9636891109 L 194.06825638449 12.9011891109 L 216.99013138449 12.9011891109 L 216.99013138449 23.9636891109 Z M 240.94325638449 1.4168141109 C 243.81825638449 -2.1769358891 247.34950638449 -3.9738108891 251.53700638449 -3.9738108891 C 256.16200638449 -3.9738108891 259.67763138449 -2.3488108891 262.08388138449 0.9011891109 C 264.49013138449 4.1511891109 265.70888138449 8.9949391109 265.74013138449 15.4324391109 L 265.74013138449 47.6824391109 L 252.42763138449 47.6824391109 L 252.42763138449 15.5730641109 C 252.42763138449 12.6043141109 251.96669388449 10.4558766109 251.04481888449 9.1277516109 C 250.12294388449 7.7996266109 248.63075638449 7.1355641109 246.56825638449 7.1355641109 C 244.16200638449 7.1355641109 242.28700638449 8.2449391109 240.94325638449 10.4636891109 L 240.94325638449 47.6824391109 L 227.67763138449 47.6824391109 L 227.67763138449 -24.3175608891 L 240.94325638449 -24.3175608891 L 240.94325638449 1.4168141109 Z M 273.70888138449 20.6824391109 C 273.70888138449 12.9949391109 275.52138138449 6.9636891109 279.14638138449 2.5886891109 C 282.77138138449 -1.7863108891 287.78700638449 -3.9738108891 294.19325638449 -3.9738108891 C 300.66200638449 -3.9738108891 305.70888138449 -1.7863108891 309.33388138449 2.5886891109 C 312.95888138449 6.9636891109 314.77138138449 13.0261891109 314.77138138449 20.7761891109 L 314.77138138449 24.0105641109 C 314.77138138449 31.7293141109 312.97450638449 37.7605641109 309.38075638449 42.1043141109 C 305.78700638449 46.4480641109 300.75575638449 48.6199391109 294.28700638449 48.6199391109 C 287.78700638449 48.6199391109 282.73231888449 46.4402516109 279.12294388449 42.0808766109 C 275.51356888449 37.7215016109 273.70888138449 31.6668141109 273.70888138449 23.9168141109 L 273.70888138449 20.6824391109 Z M 287.02138138449 24.0105641109 C 287.02138138449 33.0730641109 289.44325638449 37.6043141109 294.28700638449 37.6043141109 C 298.75575638449 37.6043141109 301.16200638449 33.8230641109 301.50575638449 26.2605641109 L 301.55263138449 20.6824391109 C 301.55263138449 16.0574391109 300.91200638449 12.6277516109 299.63075638449 10.3933766109 C 298.34950638449 8.1590016109 296.53700638449 7.0418141109 294.19325638449 7.0418141109 C 291.94325638449 7.0418141109 290.18544388449 8.1590016109 288.91981888449 10.3933766109 C 287.65419388449 12.6277516109 287.02138138449 16.0574391109 287.02138138449 20.6824391109 L 287.02138138449 24.0105641109 Z M 338.44325638449 -15.5050608891 L 338.44325638449 -3.0363108891 L 345.24013138449 -3.0363108891 L 345.24013138449 6.9480641109 L 338.44325638449 6.9480641109 L 338.44325638449 32.1199391109 C 338.44325638449 34.1199391109 338.71669388449 35.4949391109 339.26356888449 36.2449391109 C 339.81044388449 36.9949391109 340.86513138449 37.3699391109 342.42763138449 37.3699391109 C 343.70888138449 37.3699391109 344.75575638449 37.2605641109 345.56825638449 37.0418141109 L 345.47450638449 47.3543141109 C 343.22450638449 48.1980641109 340.78700638449 48.6199391109 338.16200638449 48.6199391109 C 329.59950638449 48.6199391109 325.27138138449 43.7136891109 325.17763138449 33.9011891109 L 325.17763138449 6.9480641109 L 319.31825638449 6.9480641109 L 319.31825638449 -3.0363108891 L 325.17763138449 -3.0363108891 L 325.17763138449 -15.5050608891 L 338.44325638449 -15.5050608891 Z M 372.99013138449 48.6199391109 C 366.17763138449 48.6199391109 360.86513138449 46.5886891109 357.05263138449 42.5261891109 C 353.24013138449 38.4636891109 351.33388138449 32.6511891109 351.33388138449 25.0886891109 L 351.33388138449 21.0574391109 C 351.33388138449 13.0574391109 353.08388138449 6.8855641109 356.58388138449 2.5418141109 C 360.08388138449 -1.8019358891 365.09950638449 -3.9738108891 371.63075638449 -3.9738108891 C 378.00575638449 -3.9738108891 382.80263138449 -1.9347483891 386.02138138449 2.1433766109 C 389.24013138449 6.2215016109 390.88075638449 12.2605641109 390.94325638449 20.2605641109 L 390.94325638449 26.7761891109 L 364.55263138449 26.7761891109 C 364.74013138449 30.5261891109 365.56825638449 33.2683766109 367.03700638449 35.0027516109 C 368.50575638449 36.7371266109 370.77138138449 37.6043141109 373.83388138449 37.6043141109 C 378.27138138449 37.6043141109 381.97450638449 36.0886891109 384.94325638449 33.0574391109 L 390.14638138449 41.0730641109 C 388.52138138449 43.3230641109 386.16200638449 45.1433766109 383.06825638449 46.5340016109 C 379.97450638449 47.9246266109 376.61513138449 48.6199391109 372.99013138449 48.6199391109 Z M 364.64638138449 17.4949391109 L 377.91200638449 17.4949391109 L 377.91200638449 16.2761891109 C 377.84950638449 13.2449391109 377.34950638449 10.9480641109 376.41200638449 9.3855641109 C 375.47450638449 7.8230641109 373.84950638449 7.0418141109 371.53700638449 7.0418141109 C 369.22450638449 7.0418141109 367.54481888449 7.8699391109 366.49794388449 9.5261891109 C 365.45106888449 11.1824391109 364.83388138449 13.8386891109 364.64638138449 17.4949391109 Z M 412.36513138449 47.6824391109 L 399.05263138449 47.6824391109 L 399.05263138449 -24.3175608891 L 412.36513138449 -24.3175608891 L 412.36513138449 47.6824391109 Z"/></svg>